# xmcd CD database file
#
# Track frame offsets:
#	150
#	25469
#	40762
#	63722
#	94488
#	115020
#	136502
#	161173
#	177002
#	207845
#
# Disc length: 3010 seconds
#
# Revision: 0
# Processed by: cddbd v1.5.2PL0 Copyright (c) Steve Scherf et al.
# Submitted via: CDex 1.51
#
DISCID=850bc00a
DTITLE=Francis Cabrel - Samedi soir sur la terre
DYEAR=1900
DGENRE=Blues
TTITLE0=La corrida
TTITLE1=Assis sur le toit du minde
TTITLE2=La cabane du pecheur
TTITLE3=Samedi soir sur la terre
TTITLE4=Je t aiamis je t aime et je t aimerai
TTITLE5=Les vidanges du diable
TTITLE6=L'arbre va tomber
TTITLE7=Octobre
TTITLE8=Le noceur
TTITLE9=Tot ou tard s en aller
EXTD=
EXTT0=
EXTT1=
EXTT2=
EXTT3=
EXTT4=
EXTT5=
EXTT6=
EXTT7=
EXTT8=
EXTT9=
PLAYORDER=
